<?xml version="1.0" encoding="utf-8"?>
<!-- Generator: Adobe Illustrator 24.1.1, SVG Export Plug-In . SVG Version: 6.00 Build 0)  -->
<svg version="1.1" id="logo_layer" xmlns="http://www.w3.org/2000/svg" xmlns:xlink="http://www.w3.org/1999/xlink" x="0px"
	 y="0px" viewBox="0 0 662 209" style="enable-background:new 0 0 662 209;" xml:space="preserve">
<style type="text/css">
	.st0{fill:#1089FF;}
	.st1{fill:#EEEEEE;}
	.st2{fill:none;stroke:#EEEEEE;stroke-width:15;stroke-miterlimit:10;}
</style>
<path class="st0" d="M108.31,168.09c-0.11,0.06-0.23,0.12-0.34,0.17c-1.18,0.52-2.64,0.99-4.37,1.41c-1.81,0.44-3.79,0.8-5.94,1.07
	c-2.15,0.27-4.37,0.44-6.68,0.49c-2.31,0.05-4.51-0.03-6.6-0.25c-6.93-0.55-13.06-2.15-18.4-4.79c-5.34-2.64-9.82-6.08-13.45-10.31
	c-3.63-4.23-6.38-9.21-8.25-14.93c-1.87-5.72-2.81-11.93-2.81-18.64c0-7.04,1.1-13.53,3.3-19.47c2.2-5.94,5.31-11.06,9.32-15.35
	c4.01-4.29,8.85-7.62,14.52-9.98c5.66-2.36,11.96-3.55,18.89-3.55c3.19,0,6.68,0.22,10.48,0.66c3.79,0.44,7.29,1.21,10.48,2.31
	c0.99,0.33,1.57,0.72,1.73,1.16c0.17,0.44,0.19,1.27,0.08,2.47l-1.65,12.71c-0.22,1.32-0.58,2.2-1.07,2.64
	c-0.49,0.44-1.57,0.39-3.22-0.17c-2.31-0.88-5.12-1.51-8.42-1.9c-3.3-0.38-6.22-0.52-8.75-0.41c-7.59,0.22-13.45,2.94-17.57,8.17
	c-4.13,5.23-6.19,12.13-6.19,20.71c0,8.25,1.95,14.91,5.86,19.96c3.9,5.06,9.38,7.98,16.42,8.75c3.52,0.55,7.01,0.63,10.48,0.25
	c3.46-0.38,6.52-1.02,9.16-1.9c1.76-0.55,2.83-0.69,3.22-0.41c0.38,0.28,0.63,1.02,0.74,2.23l0.99,12.71
	c0.11,1.32,0.03,2.23-0.25,2.72C109.77,167.08,109.2,167.57,108.31,168.09z"/>
<path class="st0" d="M182.06,168.84c-1.21,0-2.06-0.22-2.56-0.66c-0.5-0.44-0.74-1.32-0.74-2.63V113.2
	c0-13.94-4.13-20.91-12.38-20.91c-4.62,0-8.42,0.91-11.39,2.72c-2.79,1.7-4.85,4.01-6.19,6.92c-0.17,0.37-0.25,0.78-0.25,1.19
	l0,62.44c0,1.31-0.28,2.19-0.82,2.63c-0.55,0.44-1.38,0.66-2.48,0.66h-15.18c-1.21,0-2.04-0.22-2.48-0.66
	c-0.44-0.44-0.66-1.32-0.66-2.64V36.02c0-2.2,1.04-3.3,3.13-3.3h12.33c3.4,0,6.15,2.76,6.15,6.15v36.24c0,2.24,2.46,3.61,4.36,2.42
	c1.61-1.01,3.29-1.9,5.05-2.66c3.41-1.48,6.65-2.23,9.73-2.23c11.11,0,19.33,3.24,24.67,9.72c5.33,6.48,8,16.69,8,30.64v52.54
	c0,1.32-0.25,2.2-0.74,2.64c-0.49,0.44-1.29,0.66-2.39,0.66H182.06z"/>
<path class="st0" d="M275.61,169.17c-0.99,0-1.62-0.11-1.9-0.33c-0.28-0.22-0.41-0.88-0.41-1.98l0,0c0-2.38-2.71-3.67-4.62-2.25
	c-1.32,0.98-2.84,1.9-4.54,2.74c-4.24,2.09-8.44,3.13-12.62,3.13c-4.51,0-8.86-0.63-13.04-1.9c-4.18-1.27-7.62-3.25-10.31-5.94
	c-2.7-2.7-4.81-5.94-6.35-9.74c-1.54-3.79-2.31-8.11-2.31-12.95c0-5.72,1.37-10.89,4.13-15.51c2.75-4.62,6.41-8.22,10.97-10.81
	c4.56-2.58,9.98-4.45,16.25-5.61c5.33-0.98,11.14-1.39,17.43-1.22c1.81,0.05,3.25-1.6,2.88-3.37c-1.33-6.47-4.91-10.08-10.74-10.84
	c-2.2-0.22-4.43-0.17-6.68,0.16c-2.26,0.33-4.46,0.85-6.6,1.57c-2.15,0.72-4.21,1.54-6.19,2.48c-1.98,0.94-3.74,1.9-5.28,2.89
	c-2.31,1.54-3.96,2.31-4.95,2.31c-0.99,0-1.48-1.1-1.48-3.3v-13.7c0-1.43,0.14-2.45,0.41-3.05c0.27-0.6,1.07-1.24,2.39-1.9
	c3.3-1.65,7.18-3.19,11.63-4.62c4.45-1.43,9.71-2.15,15.76-2.15c11.22,0,19.61,2.86,25.16,8.58c5.55,5.72,8.33,14.58,8.33,26.56
	v37.62c0,1.43,0,3,0,4.7c0,1.71,0.03,3.44,0.08,5.2c0.05,1.76,0.11,3.44,0.17,5.03c0.05,1.59,0.14,3,0.25,4.21
	c0.22,2.2,0.11,3.41-0.33,3.63c-0.44,0.22-1.21,0.33-2.31,0.33H275.61z M273.2,126.72c0.09-1.67-1.3-3.07-2.97-3
	c-4.91,0.19-9.05,0.63-12.44,1.32c-4.07,0.82-7.34,1.95-9.82,3.38c-2.47,1.43-4.15,3.14-5.03,5.12c-0.88,1.98-1.32,4.18-1.32,6.6
	c0,3.52,1.04,6.24,3.13,8.17c2.09,1.93,5,2.89,8.75,2.89c5.94,0,10.7-2.17,14.27-6.52C270.95,140.8,272.76,134.82,273.2,126.72z"/>
<path class="st0" d="M316.69,168.68c-0.99,0-1.68-0.22-2.06-0.66c-0.39-0.44-0.58-1.32-0.58-2.64V36.51c0-1.32,0.16-2.2,0.49-2.64
	c0.33-0.44,1.04-0.66,2.15-0.66h16.33c1.1,0,1.84,0.22,2.23,0.66c0.38,0.44,0.58,1.32,0.58,2.64v128.86c0,1.32-0.19,2.2-0.58,2.64
	c-0.39,0.44-1.13,0.66-2.23,0.66H316.69z"/>
<path class="st1" d="M411.57,168.84c-1.54,0-2.59-0.14-3.14-0.41c-0.55-0.28-1.15-0.91-1.81-1.9l-20.7-32.69
	c-1.03-1.63-3.34-1.79-4.59-0.32l-3.41,4c-0.44,0.52-0.68,1.17-0.68,1.85v25.85c0,1.32-0.25,2.2-0.74,2.64
	c-0.5,0.44-1.35,0.66-2.56,0.66h-15.18c-1.21,0-2.04-0.22-2.47-0.66c-0.44-0.44-0.66-1.32-0.66-2.64V36.51c0-2.2,1.04-3.3,3.13-3.3
	h12.33c3.4,0,6.15,2.76,6.15,6.15v61.14c0,2.68,3.35,3.88,5.06,1.82l20.68-25.06c0.55-0.66,1.04-1.1,1.48-1.32
	c0.44-0.22,1.16-0.33,2.15-0.33h16.17c1.87,0,2.94,0.39,3.22,1.15c0.27,0.77-0.41,2.15-2.06,4.13l-25.95,32.56
	c-0.76,0.96-0.83,2.29-0.17,3.32l30.58,47.78c0.99,1.43,1.4,2.5,1.24,3.22c-0.17,0.71-1.18,1.07-3.05,1.07H411.57z"/>
<path class="st1" d="M491.26,169.17c-0.99,0-1.62-0.11-1.9-0.33c-0.28-0.22-0.41-0.88-0.41-1.98v0c0-2.38-2.71-3.67-4.62-2.25
	c-1.32,0.98-2.84,1.9-4.54,2.74c-4.24,2.09-8.44,3.13-12.62,3.13c-4.51,0-8.86-0.63-13.04-1.9c-4.18-1.27-7.62-3.25-10.31-5.94
	c-2.7-2.7-4.81-5.94-6.35-9.74c-1.54-3.79-2.31-8.11-2.31-12.95c0-5.72,1.37-10.89,4.13-15.51c2.75-4.62,6.41-8.22,10.97-10.81
	c4.56-2.58,9.98-4.45,16.25-5.61c5.33-0.98,11.14-1.39,17.43-1.22c1.81,0.05,3.25-1.6,2.88-3.37c-1.33-6.47-4.91-10.08-10.74-10.84
	c-2.2-0.22-4.43-0.17-6.68,0.16c-2.26,0.33-4.46,0.85-6.6,1.57c-2.14,0.72-4.21,1.54-6.19,2.48c-1.98,0.94-3.74,1.9-5.28,2.89
	c-2.31,1.54-3.96,2.31-4.95,2.31s-1.49-1.1-1.49-3.3v-13.7c0-1.43,0.14-2.45,0.41-3.05c0.27-0.6,1.07-1.24,2.39-1.9
	c3.3-1.65,7.18-3.19,11.63-4.62c4.46-1.43,9.71-2.15,15.76-2.15c11.22,0,19.61,2.86,25.16,8.58c5.55,5.72,8.33,14.58,8.33,26.56
	v37.62c0,1.43,0,3,0,4.7c0,1.71,0.03,3.44,0.08,5.2c0.05,1.76,0.11,3.44,0.17,5.03c0.05,1.59,0.14,3,0.25,4.21
	c0.22,2.2,0.11,3.41-0.33,3.63c-0.44,0.22-1.21,0.33-2.31,0.33H491.26z M488.85,126.72c0.09-1.67-1.3-3.07-2.97-3
	c-4.91,0.19-9.05,0.63-12.44,1.32c-4.07,0.82-7.34,1.95-9.82,3.38c-2.47,1.43-4.15,3.14-5.03,5.12c-0.88,1.98-1.32,4.18-1.32,6.6
	c0,3.52,1.04,6.24,3.14,8.17c2.09,1.93,5,2.89,8.74,2.89c5.94,0,10.7-2.17,14.27-6.52C486.6,140.8,488.41,134.82,488.85,126.72z"/>
<path class="st1" d="M587.29,168.84c-1.54,0-2.59-0.14-3.14-0.41c-0.55-0.28-1.15-0.91-1.81-1.9l-20.7-32.69
	c-1.03-1.63-3.34-1.79-4.59-0.32l-3.41,4c-0.44,0.52-0.68,1.17-0.68,1.85v25.85c0,1.32-0.25,2.2-0.74,2.64
	c-0.5,0.44-1.35,0.66-2.56,0.66h-15.18c-1.21,0-2.04-0.22-2.47-0.66c-0.44-0.44-0.66-1.32-0.66-2.64V36.51c0-2.2,1.04-3.3,3.13-3.3
	h12.33c3.4,0,6.16,2.76,6.16,6.16v61.14c0,2.68,3.35,3.88,5.06,1.82l20.68-25.06c0.55-0.66,1.04-1.1,1.48-1.32
	c0.44-0.22,1.16-0.33,2.15-0.33h16.17c1.87,0,2.94,0.39,3.22,1.15c0.27,0.77-0.41,2.15-2.06,4.13l-25.95,32.56
	c-0.76,0.96-0.83,2.29-0.17,3.32l30.58,47.78c0.99,1.43,1.4,2.5,1.24,3.22c-0.17,0.71-1.18,1.07-3.05,1.07H587.29z"/>
<path class="st2" d="M633.42,201H28.58C17.22,201,8,191.78,8,180.42V28.58C8,17.22,17.22,8,28.58,8h604.84
	C644.78,8,654,17.22,654,28.58v151.84C654,191.78,644.78,201,633.42,201z"/>
</svg>
